<mxfile host="app.diagrams.net" modified="2024-05-27T19:37:10.205Z" agent="Mozilla/5.0 (X11; Linux x86_64) AppleWebKit/537.36 (KHTML, like Gecko) Chrome/124.0.0.0 Safari/537.36" etag="9LALAP7Gb7ZUXfW40-iJ" version="24.4.9" type="github">
  <diagram name="Page-1" id="MD_6biuCJL9X2KpOXcQD">
    <mxGraphModel dx="911" dy="539" grid="1" gridSize="10" guides="1" tooltips="1" connect="1" arrows="1" fold="1" page="1" pageScale="1" pageWidth="850" pageHeight="1100" math="0" shadow="0">
      <root>
        <mxCell id="0" />
        <mxCell id="1" parent="0" />
        <mxCell id="lEzbcvRtCFfj7USNufGb-1" value="Hello World" style="rounded=1;whiteSpace=wrap;html=1;" vertex="1" parent="1">
          <mxGeometry x="150" y="130" width="290" height="140" as="geometry" />
        </mxCell>
        <mxCell id="lEzbcvRtCFfj7USNufGb-2" value="" style="curved=1;endArrow=classic;html=1;rounded=0;exitX=0.5;exitY=1;exitDx=0;exitDy=0;" edge="1" parent="1" source="lEzbcvRtCFfj7USNufGb-1">
          <mxGeometry width="50" height="50" relative="1" as="geometry">
            <mxPoint x="405" y="550" as="sourcePoint" />
            <mxPoint x="235" y="400" as="targetPoint" />
            <Array as="points">
              <mxPoint x="235" y="450" />
              <mxPoint x="335" y="330" />
              <mxPoint x="185" y="400" />
              <mxPoint x="660" y="300" />
            </Array>
          </mxGeometry>
        </mxCell>
      </root>
    </mxGraphModel>
  </diagram>
</mxfile>
